<?xml version="1.0" standalone="no"?>
<!DOCTYPE svg PUBLIC "-//W3C//DTD SVG 20010904//EN"
 "http://www.w3.org/TR/2001/REC-SVG-20010904/DTD/svg10.dtd">
<svg version="1.0" xmlns="http://www.w3.org/2000/svg"
 width="1144.000000pt" height="1280.000000pt" viewBox="0 0 1144.000000 1280.000000"
 preserveAspectRatio="xMidYMid meet">
<metadata>
Created by potrace 1.15, written by Peter Selinger 2001-2017
</metadata>
<g transform="translate(0.000000,1280.000000) scale(0.100000,-0.100000)"
fill="#000000" stroke="none">
<path d="M2239 12766 c-348 -151 -550 -373 -628 -686 -39 -156 -46 -222 -46
-460 0 -196 3 -246 18 -298 39 -137 101 -244 230 -394 41 -48 80 -102 87 -120
8 -18 45 -91 83 -161 52 -96 73 -127 86 -123 9 2 58 12 109 21 70 13 96 15
105 6 6 -6 26 -11 45 -11 l35 0 -6 -417 c-6 -420 -16 -588 -57 -908 -38 -293
-54 -368 -125 -560 -224 -606 -352 -1004 -449 -1390 -26 -103 -63 -220 -87
-275 -145 -334 -259 -648 -313 -865 -86 -348 -98 -474 -95 -985 2 -382 1 -418
-24 -630 -81 -693 -52 -1345 81 -1795 20 -70 37 -150 39 -192 4 -67 6 -73 27
-73 17 0 29 -16 62 -85 38 -82 39 -86 19 -90 -445 -90 -656 -157 -940 -294
-231 -112 -357 -222 -429 -375 -50 -105 -61 -163 -61 -316 1 -208 49 -395 169
-657 65 -141 227 -438 263 -482 2 -3 24 5 50 18 37 18 48 20 54 9 4 -7 14 -22
22 -32 12 -17 12 -27 1 -70 -20 -75 -20 -76 32 -76 33 0 77 14 158 49 586 259
1186 405 2026 493 208 22 1103 16 1635 -10 242 -12 580 -26 750 -32 452 -15
688 -27 1275 -65 778 -51 924 -57 1275 -57 446 -1 669 19 955 84 276 62 599
177 896 318 167 79 904 462 1018 529 125 72 205 157 264 279 29 58 57 135 67
179 9 43 28 119 41 168 78 292 37 591 -125 913 -46 92 -178 315 -199 337 -16
17 -134 171 -181 237 -12 16 -11 57 8 296 127 1574 291 2785 555 4097 58 285
71 337 124 475 119 310 209 614 251 845 48 270 53 480 34 1320 -14 578 -33
748 -113 999 -35 108 -92 240 -108 250 -6 3 -27 -3 -46 -15 -20 -11 -36 -19
-36 -16 0 2 16 31 36 63 39 65 158 304 152 308 -2 2 -51 30 -110 63 -59 33
-105 63 -102 66 7 7 -108 65 -268 136 -346 152 -697 249 -1118 308 -198 27
-559 23 -875 -10 -137 -15 -313 -33 -390 -42 -159 -16 -291 -25 -945 -61 -256
-14 -530 -30 -610 -35 -243 -17 -1195 -23 -1444 -10 -897 49 -1864 151 -2848
302 -142 21 -263 39 -270 39 -7 0 -47 -15 -89 -34z m8880 -1185 c11 -27 27
-78 35 -113 16 -66 36 -261 36 -338 0 -44 -1 -43 -72 99 l-73 144 -82 -7 c-56
-4 -83 -3 -83 4 0 6 33 48 73 93 40 45 86 101 102 124 17 24 33 43 36 43 4 0
16 -22 28 -49z m-8615 -1101 c11 -41 19 -119 21 -210 2 -80 1 -134 -2 -120 -2
13 -24 107 -47 210 -43 183 -43 185 -22 191 28 8 31 4 50 -71z m8011 -4166
c-21 -132 -39 -241 -42 -244 -6 -5 0 44 23 210 21 144 46 282 51 276 2 -2 -12
-111 -32 -242z m-176 -2589 c12 -93 24 -176 26 -182 6 -17 -12 -16 -22 1 -4 7
-25 32 -46 55 l-38 42 -70 -40 c-39 -23 -73 -41 -75 -41 -2 0 11 30 30 68 57
112 116 300 152 477 7 33 9 17 15 -85 4 -69 17 -201 28 -295z"/>
</g>
</svg>
